<svg width="19" height="19" viewBox="0 0 19 19" fill="none" xmlns="http://www.w3.org/2000/svg">
<g clip-path="url(#clip0_422_71)">
<path d="M9.49992 7.12492C8.87003 7.12492 8.26594 7.37514 7.82054 7.82054C7.37514 8.26594 7.12492 8.87003 7.12492 9.49992C7.12492 10.1298 7.37514 10.7339 7.82054 11.1793C8.26594 11.6247 8.87003 11.8749 9.49992 11.8749C10.1298 11.8749 10.7339 11.6247 11.1793 11.1793C11.6247 10.7339 11.8749 10.1298 11.8749 9.49992C11.8749 8.87003 11.6247 8.26594 11.1793 7.82054C10.7339 7.37514 10.1298 7.12492 9.49992 7.12492ZM9.49992 5.54159C10.5497 5.54159 11.5566 5.95862 12.2989 6.70095C13.0412 7.44329 13.4583 8.4501 13.4583 9.49992C13.4583 10.5497 13.0412 11.5566 12.2989 12.2989C11.5566 13.0412 10.5497 13.4583 9.49992 13.4583C8.4501 13.4583 7.44329 13.0412 6.70095 12.2989C5.95862 11.5566 5.54159 10.5497 5.54159 9.49992C5.54159 8.4501 5.95862 7.44329 6.70095 6.70095C7.44329 5.95862 8.4501 5.54159 9.49992 5.54159ZM14.6458 5.34367C14.6458 5.60612 14.5415 5.85783 14.3559 6.04341C14.1703 6.22899 13.9186 6.33325 13.6562 6.33325C13.3937 6.33325 13.142 6.22899 12.9564 6.04341C12.7708 5.85783 12.6666 5.60612 12.6666 5.34367C12.6666 5.08122 12.7708 4.82951 12.9564 4.64393C13.142 4.45834 13.3937 4.35409 13.6562 4.35409C13.9186 4.35409 14.1703 4.45834 14.3559 4.64393C14.5415 4.82951 14.6458 5.08122 14.6458 5.34367ZM9.49992 3.16659C7.54134 3.16659 7.2215 3.17213 6.31029 3.2125C5.68963 3.24179 5.27321 3.32492 4.88688 3.47534C4.54329 3.60834 4.2955 3.76746 4.03188 4.03188C3.78409 4.27128 3.59357 4.56355 3.47454 4.88688C3.32413 5.27479 3.241 5.69042 3.2125 6.31029C3.17134 7.18429 3.16659 7.48988 3.16659 9.49992C3.16659 11.4585 3.17213 11.7783 3.2125 12.6895C3.24179 13.3094 3.32492 13.7266 3.47454 14.1122C3.60913 14.4565 3.76746 14.7043 4.03029 14.9672C4.29709 15.2332 4.54488 15.3923 4.88529 15.5237C5.27638 15.6749 5.69279 15.7588 6.31029 15.7873C7.18429 15.8285 7.48988 15.8333 9.49992 15.8333C11.4585 15.8333 11.7783 15.8277 12.6895 15.7873C13.3086 15.758 13.7258 15.6749 14.1122 15.5253C14.455 15.3915 14.7043 15.2324 14.9672 14.9695C15.234 14.7028 15.3931 14.455 15.5245 14.1145C15.6749 13.7243 15.7588 13.307 15.7873 12.6895C15.8285 11.8155 15.8333 11.51 15.8333 9.49992C15.8333 7.54134 15.8277 7.2215 15.7873 6.31029C15.758 5.69121 15.6749 5.27321 15.5245 4.88688C15.4052 4.56388 15.215 4.27172 14.968 4.03188C14.7287 3.78396 14.4364 3.59343 14.113 3.47454C13.725 3.32413 13.3086 3.241 12.6895 3.2125C11.8155 3.17134 11.51 3.16659 9.49992 3.16659ZM9.49992 1.58325C11.6509 1.58325 11.9193 1.59117 12.7632 1.63075C13.6063 1.67034 14.1803 1.80254 14.6853 1.99888C15.2078 2.19996 15.648 2.47229 16.0882 2.91167C16.4907 3.30742 16.8022 3.78613 17.001 4.3145C17.1965 4.81879 17.3295 5.39354 17.3691 6.23667C17.4063 7.08059 17.4166 7.34896 17.4166 9.49992C17.4166 11.6509 17.4087 11.9193 17.3691 12.7632C17.3295 13.6063 17.1965 14.1803 17.001 14.6853C16.8028 15.214 16.4912 15.6928 16.0882 16.0882C15.6923 16.4906 15.2136 16.8021 14.6853 17.001C14.181 17.1965 13.6063 17.3295 12.7632 17.3691C11.9193 17.4063 11.6509 17.4166 9.49992 17.4166C7.34896 17.4166 7.08059 17.4087 6.23667 17.3691C5.39354 17.3295 4.81959 17.1965 4.3145 17.001C3.78593 16.8026 3.30713 16.4911 2.91167 16.0882C2.50903 15.6925 2.19753 15.2137 1.99888 14.6853C1.80254 14.181 1.67034 13.6063 1.63075 12.7632C1.59354 11.9193 1.58325 11.6509 1.58325 9.49992C1.58325 7.34896 1.59117 7.08059 1.63075 6.23667C1.67034 5.39275 1.80254 4.81959 1.99888 4.3145C2.19698 3.78581 2.50855 3.30696 2.91167 2.91167C3.30724 2.50889 3.78601 2.19737 4.3145 1.99888C4.81959 1.80254 5.39275 1.67034 6.23667 1.63075C7.08059 1.59354 7.34896 1.58325 9.49992 1.58325Z" fill="#E0BEA2"/>
</g>
<defs>
<clipPath id="clip0_422_71">
<rect width="19" height="19" fill="white"/>
</clipPath>
</defs>
</svg>
