<svg width="19" height="19" viewBox="0 0 19 19" fill="none" xmlns="http://www.w3.org/2000/svg">
<g clip-path="url(#clip0_422_74)">
<path d="M9.50016 15.8335C11.1799 15.8335 12.7908 15.1662 13.9785 13.9785C15.1662 12.7908 15.8335 11.1799 15.8335 9.50016C15.8335 7.82046 15.1662 6.20955 13.9785 5.02182C12.7908 3.83409 11.1799 3.16683 9.50016 3.16683C7.82046 3.16683 6.20955 3.83409 5.02182 5.02182C3.83409 6.20955 3.16683 7.82046 3.16683 9.50016C3.16683 11.1799 3.83409 12.7908 5.02182 13.9785C6.20955 15.1662 7.82046 15.8335 9.50016 15.8335ZM9.50016 17.4168C5.12779 17.4168 1.5835 13.8725 1.5835 9.50016C1.5835 5.12779 5.12779 1.5835 9.50016 1.5835C13.8725 1.5835 17.4168 5.12779 17.4168 9.50016C17.4168 13.8725 13.8725 17.4168 9.50016 17.4168ZM7.03808 10.4264L5.0605 9.8097C4.633 9.67908 4.63062 9.38458 5.15629 9.1732L12.8616 6.19654C13.3089 6.01446 13.5622 6.24483 13.4173 6.82195L12.1055 13.0128C12.0137 13.4537 11.7485 13.559 11.3804 13.3556L9.36083 11.8609L8.41954 12.7697C8.32296 12.8632 8.24458 12.9431 8.09575 12.9629C7.9477 12.9835 7.82579 12.9392 7.73633 12.6937L7.04758 10.4209L7.03808 10.4264Z" fill="#E0BEA2"/>
</g>
<defs>
<clipPath id="clip0_422_74">
<rect width="19" height="19" fill="white"/>
</clipPath>
</defs>
</svg>
